<?xml version="1.0" encoding="iso-8859-1"?>
<!-- Uploaded to: SVG Repo, www.svgrepo.com, Generator: SVG Repo Mixer Tools -->
<svg fill="#000000" height="800px" width="800px" version="1.1" id="Layer_1" xmlns="http://www.w3.org/2000/svg" xmlns:xlink="http://www.w3.org/1999/xlink" 
	 viewBox="0 0 512 512" xml:space="preserve">
<g>
	<g>
		<path d="M339.712,80.816V17.134c0-8.58-6.293-16.104-14.824-17.032c-10.076-1.096-18.581,6.749-18.581,16.6v61.241H206.095V17.134
			c0-8.58-6.293-16.104-14.824-17.032c-10.076-1.096-18.58,6.749-18.58,16.6v64.114c-19.44,6.895-33.404,25.458-33.404,47.233
			v50.106h233.829v-50.106C373.116,106.274,359.152,87.709,339.712,80.816z"/>
	</g>
</g>
<g>
	<g>
		<path d="M180.816,211.559h-60.957c-55.274,71.665-83.889,159.484-80.986,251.053c0.228,6.948,4.73,13.015,11.287,15.267
			c29.875,10.247,60.484,17.84,91.407,23.469c-3.927-58.212-2.024-117.408,7.5-173.853
			C156.22,285.158,166.987,246.423,180.816,211.559z"/>
	</g>
</g>
<g>
	<g>
		<path d="M392.141,211.559h-60.957c13.829,34.864,24.597,73.599,31.748,115.936c9.443,55.972,11.531,115.481,7.64,173.824
			c30.877-5.626,61.438-13.209,91.268-23.44c6.557-2.25,11.059-8.319,11.287-15.267
			C476.029,371.045,447.415,283.224,392.141,211.559z"/>
	</g>
</g>
<g>
	<g>
		<path d="M329.985,333.041c-7.47-44.365-19.41-86.12-34.709-121.482h-78.552c-15.3,35.362-27.239,77.117-34.709,121.482
			c-9.499,56.278-11.108,115.422-6.604,173.34C202.163,509.776,229.048,512,256,512c27.051,0,54.037-2.237,80.885-5.655
			C341.352,448.328,339.414,388.837,329.985,333.041z"/>
	</g>
</g>
</svg>