<svg xmlns="http://www.w3.org/2000/svg" viewBox="0 0 512 512" id="grid"><switch><g><path fill="#231F20" d="M423.3 81H88.7c-4.2 0-7.7 3.4-7.7 7.7v334.7c0 4.2 3.4 7.7 7.7 7.7h334.7c4.2 0 7.7-3.4 7.7-7.7V88.7c-.1-4.3-3.5-7.7-7.8-7.7zM207.9 304.1v-96.3h96.3v96.3h-96.3zm96.2 15.3v96.3h-96.3v-96.3h96.3zM96.3 207.9h96.3v96.3H96.3v-96.3zm111.6-15.3V96.3h96.3v96.3h-96.3zm111.5 15.3h96.3v96.3h-96.3v-96.3zm96.3-15.3h-96.3V96.3h96.3v96.3zM192.6 96.3v96.3H96.3V96.3h96.3zM96.3 319.4h96.3v96.3H96.3v-96.3zm223.1 96.3v-96.3h96.3v96.3h-96.3z"></path></g></switch></svg>